<?xml version="1.0" standalone="no"?>
<!DOCTYPE svg PUBLIC "-//W3C//DTD SVG 20010904//EN"
 "http://www.w3.org/TR/2001/REC-SVG-20010904/DTD/svg10.dtd">
<svg version="1.0" xmlns="http://www.w3.org/2000/svg"
 width="512.000000pt" height="512.000000pt" viewBox="0 0 512.000000 512.000000"
 preserveAspectRatio="xMidYMid meet">
<metadata>
Created by potrace 1.14, written by Peter Selinger 2001-2017
</metadata>
<g transform="translate(0.000000,512.000000) scale(0.100000,-0.100000)"
fill="#000000" stroke="none">
<path d="M412 4879 c-158 -26 -296 -154 -338 -313 -20 -76 -20 -3236 0 -3312
43 -163 180 -286 347 -313 40 -7 351 -11 842 -11 615 0 777 -3 777 -12 -1 -7
-16 -49 -34 -93 l-32 -80 -335 -5 c-382 -6 -388 -7 -462 -90 -90 -101 -90
-230 0 -330 83 -92 -32 -85 1383 -85 1415 0 1300 -7 1383 85 90 100 90 229 0
330 -74 83 -80 84 -462 90 l-335 5 -37 93 -38 92 782 0 c494 0 806 4 846 11
165 26 291 137 342 300 18 58 19 122 19 1669 0 1547 -1 1611 -19 1669 -51 163
-177 274 -342 300 -80 13 -4209 13 -4287 0z m1560 -433 c210 -40 417 -173 548
-352 46 -64 106 -191 132 -279 l23 -80 0 -781 0 -780 -25 -37 c-13 -20 -42
-45 -62 -57 -35 -20 -50 -21 -211 -18 l-174 3 -37 29 c-68 52 -76 82 -76 322
0 201 -1 213 -22 239 -38 48 -71 55 -263 55 -192 0 -225 -7 -263 -55 -21 -26
-22 -38 -22 -219 -1 -260 -15 -313 -100 -356 -34 -18 -59 -20 -202 -20 -151 0
-166 2 -203 23 -22 13 -49 40 -62 62 l-23 40 0 753 c0 648 2 764 16 830 60
294 291 554 574 647 138 46 312 58 452 31z m1623 -997 c72 -13 173 -57 224
-99 l39 -30 12 30 c32 76 125 124 200 101 50 -15 99 -56 116 -98 20 -48 20
-1138 0 -1186 -31 -74 -124 -119 -203 -97 -45 13 -105 68 -118 109 -6 21 -7
21 -45 -9 -55 -43 -137 -79 -226 -97 -263 -53 -535 127 -599 398 -20 88 -21
488 0 574 36 156 130 278 266 350 111 58 219 75 334 54z m1313 -1951 l-3 -213
-30 -54 c-31 -56 -88 -106 -148 -128 -46 -17 -4288 -17 -4334 0 -60 22 -117
72 -148 128 l-30 54 -3 213 -4 212 2352 0 2352 0 -4 -212z m-1962 -661 c19
-49 34 -91 34 -93 0 -2 -23 -4 -50 -4 -89 0 -132 -40 -116 -105 14 -54 25 -55
526 -55 l461 0 24 -24 c32 -32 40 -69 25 -107 -27 -63 65 -59 -1293 -59
l-1238 0 -24 24 c-32 32 -40 69 -25 107 26 61 11 59 513 59 498 0 509 1 523
55 16 65 -27 105 -116 105 -27 0 -50 2 -50 5 0 2 13 37 28 77 16 40 32 81 35
91 6 16 30 17 358 15 l351 -3 34 -88z"/>
<path d="M1690 3850 c-61 -28 -117 -85 -146 -145 -22 -45 -24 -63 -24 -193 l0
-144 34 -34 34 -34 206 0 c291 0 296 4 296 213 0 143 -13 194 -66 256 -59 68
-114 94 -208 98 -66 3 -89 0 -126 -17z"/>
<path d="M3412 3084 c-76 -46 -82 -69 -82 -324 0 -201 2 -224 20 -260 52 -102
201 -120 282 -34 44 47 48 72 48 294 0 123 -4 220 -11 237 -38 102 -162 144
-257 87z"/>
</g>
</svg>
